<svg id="Layer_1" data-name="Layer 1" xmlns="http://www.w3.org/2000/svg" viewBox="0 0 270 60"><defs><style>.cls-1{fill:#231f20;}</style></defs><title>haniyaArtboard 1</title><path class="cls-1" d="M10.18,40A61.37,61.37,0,0,1,12,25.24a47.31,47.31,0,0,1,4.83-12.63A18.18,18.18,0,0,1,23.57,6,18.73,18.73,0,0,1,32.9,3.61q8.34,0,12.56,5.05t4.22,15A61.85,61.85,0,0,1,48.23,37a48,48,0,0,1-4,11.54A20.21,20.21,0,0,1,37,56.91a19.1,19.1,0,0,1-10.45,2.86q-8,0-12.15-5.08T10.18,40Zm17.36,9.23A6.4,6.4,0,0,0,32,47.51a13.17,13.17,0,0,0,3.15-5.33A64.55,64.55,0,0,0,37.69,32.1a59.29,59.29,0,0,0,1-9.88,9.62,9.62,0,0,0-1.57-6,5.54,5.54,0,0,0-4.67-2,6.55,6.55,0,0,0-4.6,1.8,12.35,12.35,0,0,0-3.15,5.33,62.47,62.47,0,0,0-2.54,10.18,59.29,59.29,0,0,0-1,9.75,9.24,9.24,0,0,0,1.62,5.9A5.74,5.74,0,0,0,27.54,49.19Z"/><path class="cls-1" d="M54.94,22.29h9.84l-3.62,23c0,.08,0,.18,0,.31a17.54,17.54,0,0,0-.27,2.25,3.13,3.13,0,0,0,.77,2.28,3,3,0,0,0,2.23.79c2.08,0,3.48-2.33,4.2-7v-.12l3.38-21.5h9.94L77.3,47.42q-1,6.42-4.42,9.39t-9.8,3c-3.95,0-6.95-.87-9-2.62S51,52.82,51,49.41a34.51,34.51,0,0,1,.27-3.67c.17-1.58.49-3.83.94-6.79Z"/><polygon class="cls-1" points="82.86 59.09 87.28 30.88 83.61 30.88 84.99 22.29 88.66 22.29 90.36 11.45 100.29 11.45 98.6 22.29 103.03 22.29 101.65 30.88 97.21 30.88 92.75 59.09 82.86 59.09"/><path class="cls-1" d="M105.19,59.09l4.47-28.21h-4.24l1.38-8.59H111l1.24-7.69c0-.21.06-.48.12-.82q1-6.91,3.26-9.61a10,10,0,0,1,3.6-2.9,10.1,10.1,0,0,1,4.53-1,14.05,14.05,0,0,1,2.92.28,14.51,14.51,0,0,1,2.68.89l-1.54,10a10.7,10.7,0,0,0-1.21-.28,5.76,5.76,0,0,0-1.08-.09,2.67,2.67,0,0,0-2.36,1.54,15.73,15.73,0,0,0-1.47,5.13L121,22.29h5.14l-1.35,8.59h-5.18l-4.35,28.21Z"/><polygon class="cls-1" points="134.18 59.09 124.28 59.09 130.08 22.29 140.03 22.29 134.18 59.09"/><path class="cls-1" d="M131.28,12.92a6.75,6.75,0,0,1,2-4.85A6.27,6.27,0,0,1,137.94,6a4.79,4.79,0,0,1,3.53,1.32,4.8,4.8,0,0,1,1.31,3.54,6.76,6.76,0,0,1-2,4.95,6.65,6.65,0,0,1-4.87,2,4.4,4.4,0,0,1-3.34-1.37A5.05,5.05,0,0,1,131.28,12.92Z"/><polygon class="cls-1" points="141.98 59.09 146.4 30.88 142.74 30.88 144.12 22.29 147.79 22.29 149.48 11.45 159.42 11.45 157.73 22.29 162.16 22.29 160.77 30.88 156.35 30.88 151.87 59.09 141.98 59.09"/><polygon class="cls-1" points="163.97 59.09 168.4 30.88 164.72 30.88 166.1 22.29 169.78 22.29 171.47 11.45 181.41 11.45 179.71 22.29 184.15 22.29 182.76 30.88 178.33 30.88 173.87 59.09 163.97 59.09"/><path class="cls-1" d="M204,36.89c0-.23,0-.47.06-.73s0-.64,0-1.11a5.78,5.78,0,0,0-1.1-3.79,3.76,3.76,0,0,0-3.09-1.36,5,5,0,0,0-3.9,1.88,9.84,9.84,0,0,0-2.11,5.11Zm7.54,9.82a18,18,0,0,1-5.77,9.53A14.59,14.59,0,0,1,196,59.77q-6.25,0-9.55-3.84c-2.19-2.58-3.28-6.32-3.28-11.28q0-10.8,4.55-16.92a14.72,14.72,0,0,1,12.53-6.11q6,0,9.25,3.41t3.28,9.64c0,1.15-.06,2.4-.19,3.73s-.32,2.91-.6,4.71H192.74c-.05.35-.09.7-.11,1s0,.81,0,1.36a6.59,6.59,0,0,0,1.2,4.24,4,4,0,0,0,3.34,1.5A4.09,4.09,0,0,0,200,50.14a7.5,7.5,0,0,0,1.86-3.43Z"/><path class="cls-1" d="M213.14,59.09l5.8-36.8h9.53l-.66,5.08a14.92,14.92,0,0,1,4.05-4.24,10.36,10.36,0,0,1,4.83-1.66l-1.45,10.29q-7.92.3-9.73,11.84c-.1.7-.19,1.27-.25,1.69l-2.14,13.8Z"/><path class="cls-1" d="M235.06,56.74l1.53-9.23a17.23,17.23,0,0,0,4.27,2.6A10.69,10.69,0,0,0,245,51a3,3,0,0,0,2.11-.68,2.43,2.43,0,0,0,.75-1.87q0-2.1-4-5.37a2.4,2.4,0,0,1-.2-.15,17.87,17.87,0,0,1-4.12-4.44,8.76,8.76,0,0,1-1.2-4.56A11.57,11.57,0,0,1,242,25.08a13.5,13.5,0,0,1,9.57-3.46,17,17,0,0,1,3.79.43,26.23,26.23,0,0,1,4.43,1.41l-1.4,9.37a18.83,18.83,0,0,0-3.71-1.7,9.82,9.82,0,0,0-3.11-.55,4.43,4.43,0,0,0-2.6.68,2.07,2.07,0,0,0-1,1.79c0,.91,1.22,2.26,3.64,4.09.6.45,1,.81,1.35,1.06a14.67,14.67,0,0,1,4.1,4.34,9.8,9.8,0,0,1,1,4.66,12.09,12.09,0,0,1-3.58,9.1,12.91,12.91,0,0,1-9.4,3.47,17.43,17.43,0,0,1-5-.75A24.63,24.63,0,0,1,235.06,56.74Z"/></svg>